<svg width="13" height="13" viewBox="0 0 13 13" fill="none" xmlns="http://www.w3.org/2000/svg">
<path d="M0.624631 12.8638C0.664435 12.907 0.711703 12.9412 0.763733 12.9646C0.815763 12.988 0.871534 13 0.927857 13C0.984181 13 1.03995 12.988 1.09198 12.9646C1.14401 12.9412 1.19128 12.907 1.23108 12.8638L6.49844 7.15804L11.7679 12.8638C11.8484 12.951 11.9574 12.9999 12.0712 12.9999C12.1849 12.9999 12.294 12.951 12.3744 12.8638C12.4548 12.7767 12.5 12.6586 12.5 12.5354C12.5 12.4122 12.4548 12.294 12.3744 12.2069L7.1049 6.50111L9.73858 3.64705L12.3723 0.792988C12.4527 0.705873 12.4979 0.58772 12.4979 0.464522C12.4979 0.341323 12.4527 0.22317 12.3723 0.136055C12.2918 0.0489405 12.1828 0 12.069 0C11.9553 0 11.8462 0.0489405 11.7658 0.136055L6.49844 5.84417L1.22894 0.138377C1.14695 0.062318 1.04149 0.0225742 0.93362 0.0270874C0.825755 0.0316006 0.723434 0.0800382 0.647104 0.162721C0.570775 0.245404 0.526059 0.356242 0.521893 0.473086C0.517727 0.58993 0.554416 0.704174 0.624631 0.792988L5.89199 6.50111L0.624631 12.2092C0.544805 12.2962 0.5 12.4139 0.5 12.5365C0.5 12.6592 0.544805 12.7769 0.624631 12.8638Z" fill="black"/>
</svg>
