<svg width="18" height="22" viewBox="0 0 18 22" fill="none" xmlns="http://www.w3.org/2000/svg">
<path d="M2.25 5.40002H3.75H15.75" stroke="#005AFF" stroke-width="1.8" stroke-linecap="round" stroke-linejoin="round"/>
<path d="M6 5.40005V3.60005C6 3.12266 6.15804 2.66482 6.43934 2.32726C6.72064 1.98969 7.10217 1.80005 7.5 1.80005H10.5C10.8978 1.80005 11.2794 1.98969 11.5607 2.32726C11.842 2.66482 12 3.12266 12 3.60005V5.40005M14.25 5.40005V18C14.25 18.4774 14.092 18.9353 13.8107 19.2728C13.5294 19.6104 13.1478 19.8 12.75 19.8H5.25C4.85218 19.8 4.47064 19.6104 4.18934 19.2728C3.90804 18.9353 3.75 18.4774 3.75 18V5.40005H14.25Z" stroke="#005AFF" stroke-width="1.8" stroke-linecap="round" stroke-linejoin="round"/>
<path d="M7.5 9.90002V15.3" stroke="#005AFF" stroke-width="1.8" stroke-linecap="round" stroke-linejoin="round"/>
<path d="M10.5 9.90002V15.3" stroke="#005AFF" stroke-width="1.8" stroke-linecap="round" stroke-linejoin="round"/>
</svg>
