<svg width="18" height="18" viewBox="0 0 18 18" fill="none" xmlns="http://www.w3.org/2000/svg">
<path d="M17.5166 7.82992C17.5161 7.82951 17.5156 7.82896 17.5152 7.82855L10.1719 0.485507C9.85891 0.172365 9.44276 0 9.0001 0C8.55745 0 8.1413 0.172365 7.82816 0.485507L0.488685 7.82484C0.486213 7.82731 0.483603 7.82992 0.481268 7.8324C-0.161497 8.47887 -0.160398 9.52776 0.484427 10.1726C0.779028 10.4673 1.16798 10.6379 1.584 10.6559C1.60103 10.6575 1.61806 10.6584 1.63522 10.6584H1.92776V16.0623C1.92776 17.1318 2.79797 18.0018 3.86746 18.0018H6.7404C7.0317 18.0018 7.2678 17.7656 7.2678 17.4744V13.2377C7.2678 12.7497 7.66486 12.3528 8.15283 12.3528H9.84737C10.3354 12.3528 10.7323 12.7497 10.7323 13.2377V17.4744C10.7323 17.7656 10.9684 18.0018 11.2597 18.0018H14.1326C15.2022 18.0018 16.0723 17.1318 16.0723 16.0623V10.6584H16.3437C16.7862 10.6584 17.2024 10.486 17.5156 10.1727C18.1612 9.52693 18.1614 8.47612 17.5166 7.82992ZM16.7697 9.42695C16.6559 9.5408 16.5045 9.60357 16.3437 9.60357H15.5449C15.2536 9.60357 15.0175 9.83966 15.0175 10.131V16.0623C15.0175 16.5501 14.6206 16.947 14.1326 16.947H11.7871V13.2377C11.7871 12.1682 10.917 11.298 9.84737 11.298H8.15283C7.08321 11.298 6.213 12.1682 6.213 13.2377V16.947H3.86746C3.37962 16.947 2.98256 16.5501 2.98256 16.0623V10.131C2.98256 9.83966 2.74647 9.60357 2.45516 9.60357H1.67011C1.66187 9.60302 1.65377 9.60261 1.64539 9.60247C1.48827 9.59972 1.3409 9.53737 1.23047 9.42681C0.995618 9.19195 0.995618 8.80973 1.23047 8.57473C1.23061 8.57473 1.23061 8.5746 1.23075 8.57446L1.23116 8.57405L8.5742 1.23128C8.68792 1.11742 8.83914 1.05479 9.0001 1.05479C9.16093 1.05479 9.31215 1.11742 9.426 1.23128L16.7674 8.57254C16.7685 8.57364 16.7697 8.57473 16.7708 8.57583C17.0045 8.8111 17.004 9.1925 16.7697 9.42695Z" fill="black"/>
</svg>
