<svg width="20" height="20" viewBox="0 0 20 20" fill="none" xmlns="http://www.w3.org/2000/svg">
<path fill-rule="evenodd" clip-rule="evenodd" d="M10 7.36842C9.41895 7.36842 8.94737 6.89579 8.94737 6.31579C8.94737 5.73579 9.41895 5.26316 10 5.26316C10.5811 5.26316 11.0526 5.73579 11.0526 6.31579C11.0526 6.89579 10.5811 7.36842 10 7.36842ZM11.0526 14.7368H8.94737C8.65684 14.7368 8.42105 14.5011 8.42105 14.2105C8.42105 13.92 8.65684 13.6842 8.94737 13.6842H9.47368V9.47368H8.94737C8.65684 9.47368 8.42105 9.2379 8.42105 8.94737C8.42105 8.65684 8.65684 8.42105 8.94737 8.42105H10C10.2905 8.42105 10.5263 8.65684 10.5263 8.94737V13.6842H11.0526C11.3432 13.6842 11.5789 13.92 11.5789 14.2105C11.5789 14.5011 11.3432 14.7368 11.0526 14.7368ZM10 1.05263C5.06632 1.05263 1.05263 5.06632 1.05263 10C1.05263 14.9337 5.06632 18.9474 10 18.9474C14.9337 18.9474 18.9474 14.9337 18.9474 10C18.9474 5.06632 14.9337 1.05263 10 1.05263ZM10 20C4.48632 20 0 15.5137 0 10C0 4.48632 4.48632 0 10 0C15.5137 0 20 4.48632 20 10C20 15.5137 15.5137 20 10 20Z" fill="black"/>
</svg>
