<svg width="14" height="14" viewBox="0 0 14 14" fill="none" xmlns="http://www.w3.org/2000/svg">
<path d="M5.80398 10.6712L4.15425 12.3209C3.47031 13.0048 2.36272 13.0048 1.67935 12.321C0.995848 11.6375 0.995848 10.5298 1.67922 9.84645L4.97924 6.54643C5.66261 5.86304 6.77031 5.86304 7.45367 6.54643C7.68148 6.77424 8.05085 6.77424 8.27866 6.54643C8.50647 6.31862 8.50647 5.94925 8.27866 5.72145C7.13965 4.58243 5.29326 4.58243 4.15425 5.72145L0.854258 9.02144C-0.284753 10.1605 -0.284753 12.0068 0.854258 13.1458C1.99313 14.2855 3.83965 14.2855 4.97927 13.1458L6.62899 11.4961C6.8568 11.2683 6.8568 10.8989 6.62899 10.6711C6.40118 10.4433 6.03179 10.4434 5.80398 10.6712Z" fill="white"/>
<path d="M13.1436 0.854258C12.0046 -0.284753 10.1576 -0.284753 9.01861 0.854258L7.0393 2.83357C6.8115 3.06137 6.8115 3.43074 7.0393 3.65855C7.26711 3.88636 7.63648 3.88636 7.86429 3.65855L9.8436 1.67924C10.527 0.995848 11.6352 0.995848 12.3186 1.67924C13.002 2.36261 13.002 3.47031 12.3186 4.15368L8.68903 7.78331C8.00563 8.46671 6.89796 8.46671 6.21459 7.78331C5.98678 7.55551 5.61741 7.55551 5.38961 7.78331C5.1618 8.01112 5.1618 8.38049 5.38961 8.6083C6.52862 9.74731 8.375 9.74731 9.51401 8.6083L13.1436 4.97869C14.2826 3.83968 14.2826 1.99327 13.1436 0.854258Z" fill="white"/>
</svg>
