<svg width="86" height="79" viewBox="0 0 86 79" fill="none" xmlns="http://www.w3.org/2000/svg">
<path d="M3.58398 75.73V22.2595L43.0218 3.92676L82.4597 22.2595V75.73H3.58398Z" fill="#5771E5"/>
<path d="M10.8867 34.4814H40.0999V75.7301H10.8867V34.4814Z" fill="#89A8F5"/>
<path d="M19.6499 66.5631H16.7285V57.3968H11.7886L9.42523 62.3406V66.5631H6.50391V61.98C6.50389 61.7428 6.5567 61.5089 6.65814 61.2967L9.57946 55.1858C9.70076 54.9321 9.88724 54.7186 10.118 54.5695C10.3487 54.4203 10.6146 54.3413 10.8859 54.3413H18.1892C18.5766 54.3413 18.9481 54.5023 19.222 54.7888C19.496 55.0753 19.6498 55.4639 19.6499 55.869V66.5631Z" fill="#6D7EB3"/>
<path d="M45.9434 45.1753H75.1566V75.7299H45.9434V45.1753Z" fill="#3D44D1"/>
<path d="M82.4597 28.3704H3.58398V22.2595L43.0218 3.92676L82.4597 22.2595V28.3704Z" fill="#6E8BEB"/>
<path d="M19.6504 71.1465H35.7177V75.7297H19.6504V71.1465Z" fill="#8796C4"/>
<path d="M19.6504 49.7583H24.0324V74.202H19.6504V49.7583Z" fill="#8796C4"/>
<path d="M24.0332 60.4526H35.7185V71.1467H24.0332V60.4526Z" fill="#F7C04A"/>
<path d="M28.4141 61.98H31.3354V66.5632H28.4141V61.98Z" fill="#F7DFA1"/>
<path d="M43.0215 65.0356H54.7068V75.7297H43.0215V65.0356Z" fill="#F7C04A"/>
<path d="M47.4023 66.5635H50.3237V71.1467H47.4023V66.5635Z" fill="#F7DFA1"/>
<path d="M54.707 65.0356H66.3923V75.7297H54.707V65.0356Z" fill="#F7C04A"/>
<path d="M59.0879 66.5635H62.0092V71.1467H59.0879V66.5635Z" fill="#F7DFA1"/>
<path d="M66.3926 65.0356H78.0779V75.7297H66.3926V65.0356Z" fill="#F7C04A"/>
<path d="M70.7734 66.5635H73.6948V71.1467H70.7734V66.5635Z" fill="#F7DFA1"/>
<path d="M43.0215 54.3413H54.7068V65.0354H43.0215V54.3413Z" fill="#F7C04A"/>
<path d="M47.4023 54.3413H50.3237V58.9245H47.4023V54.3413Z" fill="#F7DFA1"/>
<path d="M54.707 54.3413H66.3923V65.0354H54.707V54.3413Z" fill="#F7C04A"/>
<path d="M59.0879 54.3413H62.0092V58.9245H59.0879V54.3413Z" fill="#F7DFA1"/>
<path d="M66.3926 54.3413H78.0779V65.0354H66.3926V54.3413Z" fill="#F7C04A"/>
<path d="M70.7734 54.3413H73.6948V58.9245H70.7734V54.3413Z" fill="#F7DFA1"/>
<path d="M24.0332 49.7583H35.7185V60.4524H24.0332V49.7583Z" fill="#F7C04A"/>
<path d="M28.4141 49.7583H31.3354V54.3415H28.4141V49.7583Z" fill="#F7DFA1"/>
<path d="M45.9434 34.4814H75.1566V45.1755H45.9434V34.4814Z" fill="#89A8F5"/>
<path d="M50.3242 39.0645H53.2455V42.1199H50.3242V39.0645Z" fill="#6E8BEB"/>
<path d="M56.168 39.0645H70.7746V42.1199H56.168V39.0645Z" fill="#6E8BEB"/>
<path d="M15.2695 39.0645H18.1909V42.1199H15.2695V39.0645Z" fill="#6E8BEB"/>
<path d="M21.1113 39.0645H35.7179V42.1199H21.1113V39.0645Z" fill="#6E8BEB"/>
<path d="M41.5605 6.98193H44.4819V23.787H41.5605V6.98193Z" fill="#5771E5"/>
<path d="M35.7188 8.50977H38.6401V23.7871H35.7188V8.50977Z" fill="#5771E5"/>
<path d="M47.4043 8.50977H50.3256V23.7871H47.4043V8.50977Z" fill="#5771E5"/>
<path d="M29.875 10.0376H32.7963V23.7872H29.875V10.0376Z" fill="#5771E5"/>
<path d="M24.0332 13.0933H26.9545V23.7874H24.0332V13.0933Z" fill="#5771E5"/>
<path d="M18.1895 16.1484H21.1108V23.7871H18.1895V16.1484Z" fill="#5771E5"/>
<path d="M12.3477 17.6763H15.269V23.7872H12.3477V17.6763Z" fill="#5771E5"/>
<path d="M53.2461 10.0376H56.1674V23.7872H53.2461V10.0376Z" fill="#5771E5"/>
<path d="M59.0879 13.0933H62.0092V23.7874H59.0879V13.0933Z" fill="#5771E5"/>
<path d="M64.9316 16.1484H67.853V23.7871H64.9316V16.1484Z" fill="#5771E5"/>
<path d="M70.7734 17.6763H73.6948V23.7872H70.7734V17.6763Z" fill="#5771E5"/>
<path d="M43.0213 6.98201L80.9984 23.787H85.3804V19.2038L43.0213 0.871094L0.662109 19.2038V23.787H5.04409L43.0213 6.98201Z" fill="#A2C1FA"/>
<path d="M67.8527 63.5077V54.3413H64.9314V63.5077H56.1674V54.3413H53.2461V63.5077H43.0215V66.5631H53.2461V75.7295H56.1674V66.5631H64.9314V75.7295H67.8527V66.5631H78.0773V63.5077H67.8527Z" fill="#F5A431"/>
<path d="M24.0332 58.9248H35.7185V61.9803H24.0332V58.9248Z" fill="#F5A431"/>
<path d="M0.662109 75.7295V68.0909L5.04409 61.98H7.96541L12.3474 66.5632H19.6507V75.7295H0.662109Z" fill="#F7C04A"/>
<path d="M7.96429 77.2574C9.57769 77.2574 10.8856 75.8894 10.8856 74.2019C10.8856 72.5145 9.57769 71.1465 7.96429 71.1465C6.35089 71.1465 5.04297 72.5145 5.04297 74.2019C5.04297 75.8894 6.35089 77.2574 7.96429 77.2574Z" fill="#8796C4"/>
<path d="M7.96597 78.7855C7.09929 78.7855 6.25208 78.5167 5.53147 78.0131C4.81086 77.5095 4.24921 76.7937 3.91754 75.9562C3.58588 75.1188 3.49911 74.1972 3.66818 73.3082C3.83726 72.4191 4.25461 71.6025 4.86744 70.9615C5.48027 70.3206 6.26106 69.884 7.11109 69.7072C7.96111 69.5304 8.84218 69.6211 9.64288 69.968C10.4436 70.3149 11.128 70.9023 11.6095 71.656C12.091 72.4097 12.3479 73.2959 12.3479 74.2023C12.3466 75.4174 11.8845 76.5824 11.063 77.4416C10.2415 78.3008 9.12774 78.7841 7.96597 78.7855ZM7.96597 72.6746C7.67708 72.6746 7.39467 72.7642 7.15447 72.9321C6.91426 73.0999 6.72705 73.3385 6.61649 73.6177C6.50594 73.8969 6.47701 74.204 6.53337 74.5004C6.58973 74.7967 6.72885 75.0689 6.93313 75.2826C7.1374 75.4963 7.39767 75.6418 7.68101 75.7007C7.96435 75.7597 8.25804 75.7294 8.52494 75.6138C8.79184 75.4981 9.01996 75.3023 9.18046 75.0511C9.34096 74.7999 9.42663 74.5045 9.42663 74.2023C9.42619 73.7973 9.27215 73.409 8.99832 73.1226C8.72449 72.8362 8.35322 72.6751 7.96597 72.6746Z" fill="#56679C"/>
<path d="M19.6518 77.2574C21.2652 77.2574 22.5731 75.8894 22.5731 74.2019C22.5731 72.5145 21.2652 71.1465 19.6518 71.1465C18.0384 71.1465 16.7305 72.5145 16.7305 74.2019C16.7305 75.8894 18.0384 77.2574 19.6518 77.2574Z" fill="#8796C4"/>
<path d="M19.6515 78.7855C18.7848 78.7855 17.9376 78.5167 17.217 78.0131C16.4964 77.5095 15.9348 76.7937 15.6031 75.9562C15.2714 75.1188 15.1847 74.1972 15.3537 73.3082C15.5228 72.4191 15.9402 71.6025 16.553 70.9615C17.1658 70.3206 17.9466 69.884 18.7966 69.7072C19.6467 69.5304 20.5277 69.6211 21.3284 69.968C22.1291 70.3149 22.8135 70.9023 23.295 71.656C23.7765 72.4097 24.0335 73.2959 24.0335 74.2023C24.0322 75.4174 23.5701 76.5824 22.7486 77.4416C21.9271 78.3008 20.8133 78.7841 19.6515 78.7855ZM19.6515 72.6746C19.3626 72.6746 19.0802 72.7642 18.84 72.9321C18.5998 73.0999 18.4126 73.3385 18.302 73.6177C18.1915 73.8969 18.1626 74.204 18.2189 74.5004C18.2753 74.7967 18.4144 75.0689 18.6187 75.2826C18.8229 75.4963 19.0832 75.6418 19.3666 75.7007C19.6499 75.7597 19.9436 75.7294 20.2105 75.6138C20.4774 75.4981 20.7055 75.3023 20.866 75.0511C21.0265 74.7999 21.1122 74.5045 21.1122 74.2023C21.1117 73.7973 20.9577 73.409 20.6839 73.1226C20.41 72.8362 20.0388 72.6751 19.6515 72.6746Z" fill="#56679C"/>
</svg>
