<svg width="88" height="54" viewBox="0 0 88 54" fill="none" xmlns="http://www.w3.org/2000/svg">
<path d="M3.89648 51.0254V15.0053L44.3866 2.65552L84.8767 15.0053V51.0254H3.89648Z" fill="#5771E5"/>
<path d="M11.3945 23.2385H41.3872V51.0255H11.3945V23.2385Z" fill="#89A8F5"/>
<path d="M20.3912 44.8505H17.392V38.6756H12.3203L9.8938 42.006V44.8505H6.89453V41.763C6.89451 41.6033 6.94873 41.4457 7.05288 41.3028L10.0521 37.1862C10.1767 37.0153 10.3681 36.8715 10.605 36.771C10.8419 36.6705 11.1149 36.6173 11.3934 36.6173H18.8916C19.2893 36.6173 19.6708 36.7257 19.952 36.9187C20.2332 37.1117 20.3912 37.3735 20.3912 37.6465V44.8505Z" fill="#6D7EB3"/>
<path d="M47.3848 30.4426H77.3774V51.0256H47.3848V30.4426Z" fill="#3D44D1"/>
<path d="M84.8767 19.1219H3.89648V15.0053L44.3866 2.65552L84.8767 15.0053V19.1219Z" fill="#6E8BEB"/>
<path d="M20.3906 47.938H36.8866V51.0254H20.3906V47.938Z" fill="#8796C4"/>
<path d="M20.3906 33.5298H24.8895V49.9961H20.3906V33.5298Z" fill="#8796C4"/>
<path d="M24.8906 40.734H36.8877V47.938H24.8906V40.734Z" fill="#F7C04A"/>
<path d="M29.3906 41.7632H32.3899V44.8506H29.3906V41.7632Z" fill="#F7DFA1"/>
<path d="M44.3867 43.8214H56.3838V51.0254H44.3867V43.8214Z" fill="#F7C04A"/>
<path d="M48.8848 44.8506H51.884V47.938H48.8848V44.8506Z" fill="#F7DFA1"/>
<path d="M56.3828 43.8214H68.3799V51.0254H56.3828V43.8214Z" fill="#F7C04A"/>
<path d="M60.8809 44.8506H63.8801V47.938H60.8809V44.8506Z" fill="#F7DFA1"/>
<path d="M68.3809 43.8214H80.3779V51.0254H68.3809V43.8214Z" fill="#F7C04A"/>
<path d="M72.8789 44.8506H75.8782V47.938H72.8789V44.8506Z" fill="#F7DFA1"/>
<path d="M44.3867 36.6173H56.3838V43.8213H44.3867V36.6173Z" fill="#F7C04A"/>
<path d="M48.8848 36.6173H51.884V39.7048H48.8848V36.6173Z" fill="#F7DFA1"/>
<path d="M56.3828 36.6173H68.3799V43.8213H56.3828V36.6173Z" fill="#F7C04A"/>
<path d="M60.8809 36.6173H63.8801V39.7048H60.8809V36.6173Z" fill="#F7DFA1"/>
<path d="M68.3809 36.6173H80.3779V43.8213H68.3809V36.6173Z" fill="#F7C04A"/>
<path d="M72.8789 36.6173H75.8782V39.7048H72.8789V36.6173Z" fill="#F7DFA1"/>
<path d="M24.8906 33.5298H36.8877V40.7338H24.8906V33.5298Z" fill="#F7C04A"/>
<path d="M29.3906 33.5298H32.3899V36.6172H29.3906V33.5298Z" fill="#F7DFA1"/>
<path d="M47.3848 23.2385H77.3774V30.4426H47.3848V23.2385Z" fill="#89A8F5"/>
<path d="M51.8848 26.3259H54.884V28.3842H51.8848V26.3259Z" fill="#6E8BEB"/>
<path d="M57.8828 26.3259H72.8792V28.3842H57.8828V26.3259Z" fill="#6E8BEB"/>
<path d="M15.8926 26.3259H18.8918V28.3842H15.8926V26.3259Z" fill="#6E8BEB"/>
<path d="M21.8906 26.3259H36.887V28.3842H21.8906V26.3259Z" fill="#6E8BEB"/>
<path d="M42.8848 4.71387H45.884V16.0345H42.8848V4.71387Z" fill="#5771E5"/>
<path d="M36.8867 5.74316H39.886V16.0346H36.8867V5.74316Z" fill="#5771E5"/>
<path d="M48.8848 5.74316H51.884V16.0346H48.8848V5.74316Z" fill="#5771E5"/>
<path d="M30.8887 6.77222H33.8879V16.0345H30.8887V6.77222Z" fill="#5771E5"/>
<path d="M24.8906 8.83069H27.8899V16.0347H24.8906V8.83069Z" fill="#5771E5"/>
<path d="M18.8906 10.8888H21.8899V16.0345H18.8906V10.8888Z" fill="#5771E5"/>
<path d="M12.8926 11.918H15.8918V16.0346H12.8926V11.918Z" fill="#5771E5"/>
<path d="M54.8828 6.77222H57.8821V16.0345H54.8828V6.77222Z" fill="#5771E5"/>
<path d="M60.8809 8.83069H63.8801V16.0347H60.8809V8.83069Z" fill="#5771E5"/>
<path d="M66.8789 10.8888H69.8782V16.0345H66.8789V10.8888Z" fill="#5771E5"/>
<path d="M72.877 11.918H75.8762V16.0346H72.877V11.918Z" fill="#5771E5"/>
<path d="M44.3859 4.71376L83.3764 16.0344H87.8753V12.9469L44.3859 0.597168L0.896484 12.9469V16.0344H5.39539L44.3859 4.71376Z" fill="#A2C1FA"/>
<path d="M69.8805 42.7922V36.6173H66.8812V42.7922H57.8834V36.6173H54.8842V42.7922H44.3867V44.8505H54.8842V51.0254H57.8834V44.8505H66.8812V51.0254H69.8805V44.8505H80.3779V42.7922H69.8805Z" fill="#F5A431"/>
<path d="M24.8906 39.705H36.8877V41.7632H24.8906V39.705Z" fill="#F5A431"/>
<path d="M0.896484 51.0255V45.8798L5.39539 41.7632H8.39466L12.8936 44.8506H20.3917V51.0255H0.896484Z" fill="#F7C04A"/>
<path d="M8.3938 52.0546C10.0502 52.0546 11.3931 51.133 11.3931 49.9963C11.3931 48.8595 10.0502 47.938 8.3938 47.938C6.73735 47.938 5.39453 48.8595 5.39453 49.9963C5.39453 51.133 6.73735 52.0546 8.3938 52.0546Z" fill="#8796C4"/>
<path d="M8.39539 53.0838C7.50559 53.0838 6.63577 52.9027 5.89593 52.5635C5.15609 52.2242 4.57946 51.742 4.23895 51.1779C3.89843 50.6137 3.80934 49.993 3.98293 49.394C4.15652 48.7951 4.585 48.245 5.21418 47.8132C5.84337 47.3814 6.645 47.0874 7.5177 46.9683C8.3904 46.8491 9.29498 46.9103 10.117 47.144C10.9391 47.3776 11.6417 47.7734 12.1361 48.2811C12.6304 48.7888 12.8943 49.3857 12.8943 49.9964C12.8929 50.8149 12.4185 51.5997 11.5751 52.1785C10.7317 52.7573 9.58816 53.0829 8.39539 53.0838ZM8.39539 48.9672C8.09879 48.9672 7.80885 49.0276 7.56224 49.1407C7.31562 49.2538 7.12341 49.4145 7.00991 49.6025C6.8964 49.7906 6.86671 49.9975 6.92457 50.1972C6.98243 50.3968 7.12526 50.5802 7.33499 50.7241C7.54472 50.868 7.81192 50.966 8.10283 51.0057C8.39373 51.0455 8.69525 51.0251 8.96927 50.9472C9.2433 50.8693 9.47751 50.7374 9.64229 50.5681C9.80707 50.3989 9.89502 50.1999 9.89502 49.9964C9.89457 49.7235 9.73643 49.4619 9.45529 49.269C9.17415 49.0761 8.79298 48.9675 8.39539 48.9672Z" fill="#56679C"/>
<path d="M20.3918 52.0546C22.0483 52.0546 23.3911 51.133 23.3911 49.9963C23.3911 48.8595 22.0483 47.938 20.3918 47.938C18.7354 47.938 17.3926 48.8595 17.3926 49.9963C17.3926 51.133 18.7354 52.0546 20.3918 52.0546Z" fill="#8796C4"/>
<path d="M20.3915 53.0838C19.5017 53.0838 18.6319 52.9027 17.892 52.5635C17.1522 52.2242 16.5756 51.742 16.235 51.1779C15.8945 50.6137 15.8054 49.993 15.979 49.394C16.1526 48.7951 16.5811 48.245 17.2103 47.8132C17.8395 47.3814 18.6411 47.0874 19.5138 46.9683C20.3865 46.8491 21.2911 46.9103 22.1131 47.144C22.9352 47.3776 23.6378 47.7734 24.1322 48.2811C24.6265 48.7888 24.8904 49.3857 24.8904 49.9964C24.889 50.8149 24.4146 51.5997 23.5712 52.1785C22.7278 52.7573 21.5843 53.0829 20.3915 53.0838ZM20.3915 48.9672C20.0949 48.9672 19.8049 49.0276 19.5583 49.1407C19.3117 49.2538 19.1195 49.4145 19.006 49.6025C18.8925 49.7906 18.8628 49.9975 18.9207 50.1972C18.9785 50.3968 19.1214 50.5802 19.3311 50.7241C19.5408 50.868 19.808 50.966 20.0989 51.0057C20.3898 51.0455 20.6913 51.0251 20.9654 50.9472C21.2394 50.8693 21.4736 50.7374 21.6384 50.5681C21.8032 50.3989 21.8911 50.1999 21.8911 49.9964C21.8907 49.7235 21.7325 49.4619 21.4514 49.269C21.1702 49.0761 20.7891 48.9675 20.3915 48.9672Z" fill="#56679C"/>
</svg>
