<svg width="24" height="24" viewBox="0 0 24 24" fill="none" xmlns="http://www.w3.org/2000/svg">
<rect width="23.0526" height="23.0526" rx="5" fill="#1B6DBA"/>
<path d="M10.6119 16.1473C10.6103 16.1473 10.6084 16.1473 10.6068 16.1473C10.5398 16.146 10.4766 16.1173 10.4312 16.0682L5.79922 11.0315C5.7198 10.9451 5.7125 10.8149 5.78193 10.7201C5.85136 10.6255 5.97779 10.5931 6.08423 10.6428L10.3237 12.6278C10.3593 12.6446 10.4015 12.6365 10.4287 12.6081L16.8955 5.84929C16.9831 5.75771 17.1263 5.74772 17.2257 5.8266C17.3251 5.90549 17.348 6.04704 17.2786 6.15321L10.8459 16.0077C10.8367 16.022 10.8259 16.035 10.814 16.0471L10.7856 16.0755C10.7394 16.1214 10.6767 16.1473 10.6119 16.1473Z" fill="white"/>
</svg>
