<svg width="21" height="18" viewBox="0 0 21 18" fill="none" xmlns="http://www.w3.org/2000/svg">
<path d="M6.51846 11.1097C5.57541 10.1666 4.04092 10.1666 3.09791 11.1097C2.15486 12.0527 2.15486 13.5872 3.09791 14.5302C3.56943 15.0017 4.18881 15.2375 4.80818 15.2375C5.42756 15.2375 6.04693 15.0017 6.51846 14.5302C7.4615 13.5872 7.4615 12.0527 6.51846 11.1097ZM3.51221 14.1159C2.79764 13.4013 2.79764 12.2386 3.51221 11.524C3.86951 11.1667 4.33885 10.988 4.80818 10.988C5.27752 10.988 5.74686 11.1667 6.10416 11.524C6.81873 12.2386 6.81873 13.4013 6.10416 14.1159C5.38951 14.8305 4.22682 14.8305 3.51221 14.1159Z" fill="white"/>
<path d="M5.84465 11.7795C5.27152 11.2063 4.33891 11.2063 3.76578 11.7795C3.19266 12.3526 3.19266 13.2852 3.76578 13.8583C4.05234 14.1449 4.42879 14.2882 4.80519 14.2882C5.1816 14.2882 5.55805 14.1449 5.84461 13.8583C6.41777 13.2852 6.41777 12.3526 5.84465 11.7795ZM5.43035 13.444C5.08566 13.7887 4.5248 13.7887 4.18012 13.444C3.83543 13.0993 3.83543 12.5385 4.18012 12.1938C4.35246 12.0214 4.57887 11.9353 4.80523 11.9353C5.0316 11.9353 5.25801 12.0214 5.43035 12.1938C5.775 12.5385 5.775 13.0993 5.43035 13.444Z" fill="white"/>
<path d="M18.8063 13.4382C18.9539 13.372 19.0198 13.1985 18.9535 13.0509C18.6454 12.3651 17.9605 11.9219 17.2088 11.9219C16.1545 11.9219 15.2969 12.7796 15.2969 13.8338C15.2969 14.888 16.1545 15.7457 17.2088 15.7457C17.9352 15.7457 18.5896 15.3425 18.9169 14.6936C18.9897 14.5491 18.9316 14.3729 18.7872 14.3001C18.6427 14.2272 18.4665 14.2853 18.3937 14.4298C18.1666 14.88 17.7126 15.1598 17.2088 15.1598C16.4777 15.1598 15.8829 14.5649 15.8829 13.8338C15.8829 13.1027 16.4777 12.5078 17.2088 12.5078C17.7303 12.5078 18.2053 12.8153 18.419 13.2911C18.4853 13.4386 18.6586 13.5045 18.8063 13.4382Z" fill="white"/>
<path d="M17.2098 12.8105C16.6461 12.8105 16.1875 13.2691 16.1875 13.8329C16.1875 14.3966 16.6461 14.8552 17.2098 14.8552C17.7736 14.8552 18.2321 14.3966 18.2321 13.8329C18.2321 13.2691 17.7736 12.8105 17.2098 12.8105ZM17.2098 14.2693C16.9692 14.2693 16.7734 14.0735 16.7734 13.8329C16.7734 13.5923 16.9692 13.3965 17.2098 13.3965C17.4504 13.3965 17.6462 13.5923 17.6462 13.8329C17.6462 14.0735 17.4504 14.2693 17.2098 14.2693Z" fill="white"/>
<path d="M20.207 16.5399H19.0788C19.9367 15.9449 20.5 14.9536 20.5 13.8328C20.5 12.8562 20.0723 11.978 19.3949 11.3745V8.33684C19.3949 7.9093 19.073 7.53988 18.6462 7.47762C18.6427 7.47711 18.6393 7.47668 18.6358 7.47629L16.8091 7.27566V6.77289C16.8091 6.61109 16.678 6.47992 16.5162 6.47992C16.3543 6.47992 16.2232 6.61109 16.2232 6.77289V7.21133L15.4144 7.1225V4.8266C15.4144 4.77277 15.4582 4.72894 15.5121 4.72894H16.1255C16.1794 4.72894 16.2232 4.77277 16.2232 4.8266V5.36664C16.2232 5.52844 16.3543 5.65961 16.5162 5.65961C16.678 5.65961 16.8091 5.52844 16.8091 5.36664V4.8266C16.8091 4.45441 16.51 4.15133 16.1396 4.14371V2.42387L16.5063 2.14887C16.6357 2.0518 16.6619 1.86812 16.5648 1.73871C16.4677 1.60922 16.2841 1.58305 16.1547 1.68012L15.6709 2.04301C15.5971 2.09836 15.5537 2.1852 15.5537 2.27738V4.14301H15.5121C15.1352 4.14301 14.8285 4.44969 14.8285 4.8266V7.05812L11.7393 6.71883L10.4645 2.55105H10.4956C10.8726 2.55105 11.1792 2.24437 11.1792 1.86746V1.55664C11.1792 1.17973 10.8725 0.873047 10.4956 0.873047H2.38105C2.00414 0.873047 1.69746 1.17973 1.69746 1.55664V1.86746C1.69746 2.24437 2.00414 2.55105 2.38105 2.55105H2.47227V8.10215C2.00418 8.32664 1.5673 8.62082 1.17586 8.98015C1.07578 9.07203 1.01676 9.20281 1.01383 9.33902C1.0109 9.47609 1.0648 9.61031 1.16176 9.70722L1.49398 10.0395L1.29195 10.2415C1.09574 10.4377 1.08605 10.7509 1.26293 10.9587C1.15105 11.1718 1.05824 11.3959 0.98668 11.6258C0.714687 11.6476 0.5 11.8759 0.5 12.1535V13.4823C0.5 13.7598 0.714648 13.9881 0.986719 14.0099C1.05828 14.2398 1.15105 14.4639 1.26297 14.6771C1.08609 14.8848 1.09578 15.198 1.29199 15.3943L2.2316 16.3339C2.42781 16.53 2.74102 16.5398 2.94879 16.3629C3.07477 16.429 3.20488 16.4876 3.33742 16.5399H0.792969C0.631172 16.5399 0.5 16.6711 0.5 16.8329C0.5 16.9947 0.631172 17.1259 0.792969 17.1259H20.207C20.3689 17.1259 20.5 16.9947 20.5 16.8329C20.5 16.6711 20.3689 16.5399 20.207 16.5399ZM11.8086 7.3159L18.5658 8.05808C18.7048 8.08047 18.8089 8.19957 18.8089 8.33687V9.41719H12.5237C12.1293 9.41719 11.8086 9.09641 11.8086 8.70207V7.3159ZM11.1196 6.69601H7.62238C7.46059 6.69601 7.32941 6.82719 7.32941 6.98898C7.32941 7.15078 7.46059 7.28195 7.62238 7.28195H11.2226V8.70207C11.2226 9.41945 11.8062 10.0031 12.5237 10.0031H18.8089V10.9571C18.3344 10.6917 17.7882 10.5397 17.2069 10.5397C15.3913 10.5397 13.9142 12.0167 13.9139 13.8323H10.0105C10.1455 13.0673 10.1128 12.2769 9.91215 11.5252C9.67223 10.6262 9.19582 9.80152 8.53437 9.14004C7.55781 8.16348 6.25977 7.61035 4.87937 7.58254C4.25172 7.57016 3.63719 7.6668 3.0582 7.8632V7.28187H6.24219C6.40398 7.28187 6.53516 7.1507 6.53516 6.98891C6.53516 6.82711 6.40398 6.69594 6.24219 6.69594H5.57512V2.55105H9.8518L11.1196 6.69601ZM3.05824 6.69601V2.55105H4.98922V6.69601H3.05824ZM2.38105 1.96512C2.32723 1.96512 2.2834 1.92129 2.2834 1.86746V1.55664C2.2834 1.50281 2.32723 1.45898 2.38105 1.45898H10.4956C10.5495 1.45898 10.5933 1.50281 10.5933 1.55664V1.86746C10.5933 1.92129 10.5495 1.96512 10.4956 1.96512H2.38105ZM4.86762 8.16844C6.09594 8.19316 7.25105 8.68535 8.12008 9.55441C8.70875 10.1431 9.1327 10.8768 9.34606 11.6763C9.53359 12.379 9.55672 13.1197 9.41488 13.8323H8.98285C9.06547 13.7389 9.11598 13.6165 9.11598 13.4823V12.1535C9.11598 11.876 8.90133 11.6477 8.62926 11.6258C8.5577 11.3959 8.46492 11.1718 8.35301 10.9587C8.52988 10.7509 8.5202 10.4377 8.32398 10.2415L7.38438 9.30187C7.18813 9.10566 6.87492 9.09597 6.66719 9.27285C6.45402 9.16098 6.22996 9.06816 6.00004 8.9966C5.97824 8.72457 5.74988 8.50988 5.47234 8.50988H4.14359C3.86609 8.50988 3.63777 8.72453 3.61594 8.9966C3.38602 9.06816 3.16199 9.16094 2.94879 9.27285C2.74105 9.09601 2.42789 9.10562 2.2316 9.30187L1.90836 9.62512L1.6368 9.35355C2.52809 8.56461 3.67176 8.14476 4.86762 8.16844ZM5.41879 16.5399H4.19723C4.17508 16.329 4.02996 16.1519 3.82219 16.0895C3.6041 16.024 3.39188 15.9361 3.19137 15.8283C3.00043 15.7255 2.77266 15.7482 2.60797 15.8816L1.74418 15.0178C1.87762 14.8531 1.90023 14.6254 1.79754 14.4345C1.68973 14.2339 1.60184 14.0217 1.53633 13.8036C1.47391 13.5959 1.29684 13.4507 1.0859 13.4286V12.207C1.2968 12.1849 1.47391 12.0398 1.53629 11.832C1.6018 11.6139 1.68969 11.4017 1.79754 11.2012C1.90023 11.0102 1.87758 10.7825 1.74418 10.6178L2.60797 9.75402C2.7727 9.88746 3.00043 9.91004 3.19133 9.80738C3.39188 9.69957 3.6041 9.61168 3.82219 9.54617C4.02992 9.48375 4.17504 9.30668 4.19719 9.09574H5.41875C5.4409 9.30664 5.58602 9.48375 5.79379 9.54613C6.01187 9.61164 6.2241 9.69953 6.42461 9.80738C6.61555 9.91008 6.84324 9.88742 7.00797 9.75402L7.87176 10.6178C7.73836 10.7825 7.71574 11.0103 7.8184 11.2012C7.92621 11.4017 8.0141 11.6139 8.07961 11.832C8.14203 12.0398 8.3191 12.1848 8.53004 12.207V13.4286C8.31914 13.4507 8.14203 13.5959 8.07961 13.8036C8.0141 14.0217 7.92621 14.2339 7.8184 14.4345C7.71574 14.6254 7.73836 14.8531 7.87176 15.0178L7.00797 15.8816C6.84328 15.7482 6.61555 15.7255 6.42461 15.8282C6.2241 15.9361 6.01184 16.0239 5.79379 16.0895C5.58605 16.1519 5.44094 16.329 5.41879 16.5399ZM6.27859 16.5399C6.41113 16.4876 6.54125 16.429 6.66723 16.3629C6.875 16.5398 7.18824 16.5301 7.38441 16.3339L8.32402 15.3943C8.52023 15.198 8.52992 14.8848 8.35305 14.6771C8.39742 14.5925 8.43789 14.5059 8.47613 14.4182H13.9671C14.125 15.2944 14.6302 16.051 15.3351 16.5399H6.27859ZM14.4998 13.8328C14.4998 12.34 15.7143 11.1256 17.207 11.1256C18.6997 11.1256 19.9141 12.34 19.9141 13.8328C19.9141 15.3255 18.6997 16.5399 17.207 16.5399C15.7142 16.5399 14.4998 15.3255 14.4998 13.8328Z" fill="white"/>
<path d="M11.0742 13.3382C11.2361 13.3382 11.3672 13.2071 11.3672 13.0453V11.5938C11.3672 11.432 11.2361 11.3008 11.0742 11.3008C10.9124 11.3008 10.7812 11.432 10.7812 11.5938V13.0453C10.7812 13.2071 10.9124 13.3382 11.0742 13.3382Z" fill="white"/>
<path d="M12.1055 13.3382C12.2673 13.3382 12.3984 13.2071 12.3984 13.0453V11.5938C12.3984 11.432 12.2673 11.3008 12.1055 11.3008C11.9436 11.3008 11.8125 11.432 11.8125 11.5938V13.0453C11.8125 13.2071 11.9436 13.3382 12.1055 13.3382Z" fill="white"/>
<path d="M13.1289 13.3382C13.2907 13.3382 13.4219 13.2071 13.4219 13.0453V11.5938C13.4219 11.432 13.2907 11.3008 13.1289 11.3008C12.9671 11.3008 12.8359 11.432 12.8359 11.5938V13.0453C12.8359 13.2071 12.9671 13.3382 13.1289 13.3382Z" fill="white"/>
</svg>
