<svg width="21" height="12" viewBox="0 0 21 12" fill="none" xmlns="http://www.w3.org/2000/svg">
<path d="M4.76506 2.55469C4.3466 2.55452 3.93749 2.67845 3.58946 2.91079C3.24143 3.14314 2.97011 3.47347 2.80982 3.86001C2.64952 4.24656 2.60745 4.67195 2.68893 5.08241C2.7704 5.49286 2.97176 5.86994 3.26754 6.16595C3.56332 6.46197 3.94023 6.66363 4.35062 6.74543C4.76101 6.82723 5.18644 6.7855 5.57311 6.62552C5.95978 6.46553 6.29033 6.19448 6.52296 5.84663C6.75558 5.49879 6.87983 5.08977 6.88 4.67131C6.87942 4.11042 6.65646 3.57264 6.26001 3.17587C5.86356 2.7791 5.32596 2.55572 4.76506 2.55469ZM4.76506 5.94163C4.51358 5.94179 4.2677 5.86736 4.05853 5.72775C3.84936 5.58814 3.6863 5.38962 3.58998 5.15731C3.49367 4.925 3.46842 4.66934 3.51745 4.42268C3.56647 4.17602 3.68755 3.94945 3.86537 3.77162C4.0432 3.5938 4.26978 3.47272 4.51644 3.42369C4.76309 3.37467 5.01875 3.39992 5.25106 3.49623C5.48337 3.59255 5.68189 3.75561 5.8215 3.96478C5.96111 4.17395 6.03554 4.41983 6.03538 4.67131C6.0348 5.00804 5.90077 5.33081 5.66267 5.56892C5.42457 5.80702 5.10179 5.94104 4.76506 5.94163Z" fill="white"/>
<path d="M16.2634 2.55469C15.845 2.55485 15.436 2.67906 15.0882 2.91161C14.7404 3.14416 14.4694 3.47461 14.3093 3.86118C14.1493 4.24776 14.1075 4.6731 14.1891 5.08344C14.2708 5.49379 14.4723 5.8707 14.7681 6.16655C15.064 6.4624 15.4409 6.66389 15.8512 6.74555C16.2616 6.82722 16.6869 6.78539 17.0735 6.62536C17.4601 6.46532 17.7905 6.19427 18.0231 5.84646C18.2556 5.49865 18.3798 5.0897 18.38 4.67131C18.3795 4.1101 18.1563 3.57201 17.7595 3.17518C17.3627 2.77834 16.8246 2.55518 16.2634 2.55469ZM16.2634 5.94162C16.012 5.94146 15.7662 5.86674 15.5573 5.72693C15.3484 5.58711 15.1856 5.38848 15.0895 5.15614C14.9934 4.9238 14.9684 4.6682 15.0177 4.42165C15.0669 4.1751 15.1881 3.94868 15.366 3.77103C15.5439 3.59337 15.7704 3.47245 16.0171 3.42357C16.2637 3.37469 16.5192 3.40003 16.7515 3.4964C16.9837 3.59276 17.1821 3.75582 17.3216 3.96495C17.4612 4.17409 17.5355 4.4199 17.5354 4.67131C17.5353 4.83825 17.5023 5.00353 17.4383 5.15772C17.3744 5.31192 17.2806 5.452 17.1625 5.56996C17.0444 5.68792 16.9042 5.78146 16.7499 5.84523C16.5956 5.909 16.4303 5.94176 16.2634 5.94162Z" fill="white"/>
<path d="M20.3766 10.447L20.3496 10.3744C19.3479 7.6868 19.1976 7.57869 16.336 7.57869H16.1586C15.6468 7.57869 15.2228 7.57869 14.8646 7.59727C14.1315 6.4469 13.2244 6.39453 10.628 6.39453H10.3729C7.77657 6.39453 6.86775 6.4469 6.13462 7.59727C5.77819 7.57869 5.3525 7.57869 4.84235 7.57869H4.66498C1.80508 7.57869 1.65305 7.6868 0.651327 10.3693L0.62261 10.4453C0.543215 10.6548 0.39794 11.045 0.610785 11.3525C0.82363 11.6599 1.24087 11.6599 1.46385 11.6599H19.5354C19.7584 11.6599 20.1739 11.6599 20.3885 11.3525C20.603 11.045 20.456 10.6548 20.3766 10.447ZM5.00114 10.2122C4.92119 10.4048 4.86941 10.6079 4.84741 10.8153H1.46385C1.43514 10.8153 1.4098 10.8153 1.38784 10.8136C1.3946 10.7933 1.40304 10.768 1.41318 10.7427L1.44189 10.6649C1.86758 9.52808 2.1007 8.90137 2.44531 8.66319C2.78991 8.425 3.45548 8.42332 4.67511 8.42332H4.84235C5.1633 8.42332 5.45047 8.42332 5.70217 8.42838C5.50115 8.8811 5.29169 9.43348 5.0383 10.1092L5.00114 10.2122ZM14.9913 10.8153H6.00624C5.90405 10.8168 5.80188 10.8112 5.70048 10.7984C5.72412 10.6995 5.7546 10.6025 5.7917 10.5078L5.83055 10.4048C6.20388 9.40477 6.46402 8.7088 6.72586 8.23919C6.72754 8.2375 6.72754 8.23581 6.72923 8.23243C6.85523 7.98254 7.03596 7.76428 7.25797 7.5939C7.76981 7.23915 8.64991 7.23747 10.3915 7.23915H10.6094C12.3578 7.23915 13.2311 7.23915 13.7413 7.5939C13.9623 7.76346 14.1425 7.98053 14.2683 8.22905C14.2702 8.23372 14.2725 8.23824 14.2751 8.24257C14.5369 8.71218 14.7954 9.40646 15.1687 10.4031L15.2059 10.5062C15.2434 10.6014 15.2744 10.699 15.2988 10.7984C15.1968 10.8112 15.0941 10.8168 14.9913 10.8153ZM19.5354 10.8153H16.1502C16.1294 10.6073 16.0781 10.4036 15.9981 10.2105L15.9593 10.1075C15.7076 9.43349 15.4981 8.8811 15.2971 8.42838C15.5505 8.42332 15.836 8.42332 16.1586 8.42332H16.3258C17.537 8.42163 18.2093 8.42332 18.5556 8.66319C18.9019 8.90306 19.1334 9.52977 19.5591 10.67L19.5861 10.7427C19.5962 10.7697 19.6047 10.7933 19.6114 10.8136C19.5895 10.8153 19.5641 10.8153 19.5354 10.8153Z" fill="white"/>
<path d="M10.5022 0.339844C9.96096 0.339844 9.43187 0.500342 8.98184 0.801041C8.53182 1.10174 8.18106 1.52913 7.97394 2.02918C7.76681 2.52922 7.71262 3.07946 7.81821 3.6103C7.9238 4.14115 8.18443 4.62876 8.56715 5.01148C8.94987 5.39419 9.43748 5.65483 9.96833 5.76042C10.4992 5.86601 11.0494 5.81182 11.5494 5.60469C12.0495 5.39757 12.4769 5.04681 12.7776 4.59678C13.0783 4.14676 13.2388 3.61767 13.2388 3.07642C13.2378 2.35094 12.9492 1.65545 12.4362 1.14246C11.9232 0.62946 11.2277 0.340827 10.5022 0.339844ZM10.5022 4.96838C10.128 4.96838 9.76222 4.85742 9.45109 4.64953C9.13996 4.44164 8.89746 4.14615 8.75427 3.80044C8.61107 3.45473 8.5736 3.07432 8.6466 2.70732C8.7196 2.34032 8.8998 2.0032 9.16439 1.73861C9.42898 1.47401 9.7661 1.29382 10.1331 1.22082C10.5001 1.14782 10.8805 1.18529 11.2262 1.32848C11.5719 1.47168 11.8674 1.71418 12.0753 2.02531C12.2832 2.33644 12.3942 2.70223 12.3942 3.07642C12.3935 3.57801 12.194 4.05887 11.8393 4.41355C11.4847 4.76822 11.0038 4.96775 10.5022 4.96838Z" fill="white"/>
</svg>
