<svg width="21" height="20" viewBox="0 0 21 20" fill="none" xmlns="http://www.w3.org/2000/svg">
<path d="M4.5625 3.125H4.25C4.16712 3.125 4.08763 3.15792 4.02903 3.21653C3.97042 3.27513 3.9375 3.35462 3.9375 3.4375C3.9375 3.52038 3.97042 3.59987 4.02903 3.65847C4.08763 3.71708 4.16712 3.75 4.25 3.75H4.5625C4.64538 3.75 4.72487 3.71708 4.78347 3.65847C4.84208 3.59987 4.875 3.52038 4.875 3.4375C4.875 3.35462 4.84208 3.27513 4.78347 3.21653C4.72487 3.15792 4.64538 3.125 4.5625 3.125Z" fill="white"/>
<path d="M6.125 3.125H5.8125C5.72962 3.125 5.65013 3.15792 5.59153 3.21653C5.53292 3.27513 5.5 3.35462 5.5 3.4375C5.5 3.52038 5.53292 3.59987 5.59153 3.65847C5.65013 3.71708 5.72962 3.75 5.8125 3.75H6.125C6.20788 3.75 6.28737 3.71708 6.34597 3.65847C6.40458 3.59987 6.4375 3.52038 6.4375 3.4375C6.4375 3.35462 6.40458 3.27513 6.34597 3.21653C6.28737 3.15792 6.20788 3.125 6.125 3.125Z" fill="white"/>
<path d="M4.5625 4.375H4.25C4.16712 4.375 4.08763 4.40792 4.02903 4.46653C3.97042 4.52513 3.9375 4.60462 3.9375 4.6875C3.9375 4.77038 3.97042 4.84987 4.02903 4.90847C4.08763 4.96708 4.16712 5 4.25 5H4.5625C4.64538 5 4.72487 4.96708 4.78347 4.90847C4.84208 4.84987 4.875 4.77038 4.875 4.6875C4.875 4.60462 4.84208 4.52513 4.78347 4.46653C4.72487 4.40792 4.64538 4.375 4.5625 4.375Z" fill="white"/>
<path d="M6.125 4.375H5.8125C5.72962 4.375 5.65013 4.40792 5.59153 4.46653C5.53292 4.52513 5.5 4.60462 5.5 4.6875C5.5 4.77038 5.53292 4.84987 5.59153 4.90847C5.65013 4.96708 5.72962 5 5.8125 5H6.125C6.20788 5 6.28737 4.96708 6.34597 4.90847C6.40458 4.84987 6.4375 4.77038 6.4375 4.6875C6.4375 4.60462 6.40458 4.52513 6.34597 4.46653C6.28737 4.40792 6.20788 4.375 6.125 4.375Z" fill="white"/>
<path d="M4.5625 5.625H4.25C4.16712 5.625 4.08763 5.65792 4.02903 5.71653C3.97042 5.77513 3.9375 5.85462 3.9375 5.9375C3.9375 6.02038 3.97042 6.09987 4.02903 6.15847C4.08763 6.21708 4.16712 6.25 4.25 6.25H4.5625C4.64538 6.25 4.72487 6.21708 4.78347 6.15847C4.84208 6.09987 4.875 6.02038 4.875 5.9375C4.875 5.85462 4.84208 5.77513 4.78347 5.71653C4.72487 5.65792 4.64538 5.625 4.5625 5.625Z" fill="white"/>
<path d="M6.125 5.625H5.8125C5.72962 5.625 5.65013 5.65792 5.59153 5.71653C5.53292 5.77513 5.5 5.85462 5.5 5.9375C5.5 6.02038 5.53292 6.09987 5.59153 6.15847C5.65013 6.21708 5.72962 6.25 5.8125 6.25H6.125C6.20788 6.25 6.28737 6.21708 6.34597 6.15847C6.40458 6.09987 6.4375 6.02038 6.4375 5.9375C6.4375 5.85462 6.40458 5.77513 6.34597 5.71653C6.28737 5.65792 6.20788 5.625 6.125 5.625Z" fill="white"/>
<path d="M4.5625 6.875H4.25C4.16712 6.875 4.08763 6.90792 4.02903 6.96653C3.97042 7.02513 3.9375 7.10462 3.9375 7.1875C3.9375 7.27038 3.97042 7.34987 4.02903 7.40847C4.08763 7.46708 4.16712 7.5 4.25 7.5H4.5625C4.64538 7.5 4.72487 7.46708 4.78347 7.40847C4.84208 7.34987 4.875 7.27038 4.875 7.1875C4.875 7.10462 4.84208 7.02513 4.78347 6.96653C4.72487 6.90792 4.64538 6.875 4.5625 6.875Z" fill="white"/>
<path d="M6.125 6.875H5.8125C5.72962 6.875 5.65013 6.90792 5.59153 6.96653C5.53292 7.02513 5.5 7.10462 5.5 7.1875C5.5 7.27038 5.53292 7.34987 5.59153 7.40847C5.65013 7.46708 5.72962 7.5 5.8125 7.5H6.125C6.20788 7.5 6.28737 7.46708 6.34597 7.40847C6.40458 7.34987 6.4375 7.27038 6.4375 7.1875C6.4375 7.10462 6.40458 7.02513 6.34597 6.96653C6.28737 6.90792 6.20788 6.875 6.125 6.875Z" fill="white"/>
<path d="M0.8125 8.75H9.5625C9.64538 8.75 9.72487 8.71708 9.78347 8.65847C9.84208 8.59987 9.875 8.52038 9.875 8.4375C9.875 8.35462 9.84208 8.27513 9.78347 8.21653C9.72487 8.15792 9.64538 8.125 9.5625 8.125H9.25V4.375C9.24998 4.29213 9.21705 4.21265 9.15845 4.15405L7.6875 2.68311V2.1875C7.6875 2.10462 7.65457 2.02514 7.59597 1.96653C7.53736 1.90793 7.45788 1.875 7.375 1.875H7.0625V0.9375C7.0625 0.854621 7.02957 0.775138 6.97097 0.716534C6.91236 0.65793 6.83288 0.625004 6.75 0.625H6.4375V0.3125C6.4375 0.22962 6.40458 0.150134 6.34597 0.0915291C6.28737 0.032924 6.20788 0 6.125 0C6.04212 0 5.96263 0.032924 5.90403 0.0915291C5.84542 0.150134 5.8125 0.22962 5.8125 0.3125V0.625H4.5625V0.3125C4.5625 0.22962 4.52958 0.150134 4.47097 0.0915291C4.41237 0.032924 4.33288 0 4.25 0C4.16712 0 4.08763 0.032924 4.02903 0.0915291C3.97042 0.150134 3.9375 0.22962 3.9375 0.3125V0.625H3.625C3.54212 0.625004 3.46264 0.65793 3.40403 0.716534C3.34543 0.775138 3.3125 0.854621 3.3125 0.9375V1.875H3C2.91712 1.875 2.83764 1.90793 2.77903 1.96653C2.72043 2.02514 2.6875 2.10462 2.6875 2.1875V2.68311L1.21655 4.15405C1.15795 4.21265 1.12502 4.29213 1.125 4.375V8.125H0.8125C0.72962 8.125 0.650134 8.15792 0.591529 8.21653C0.532924 8.27513 0.5 8.35462 0.5 8.4375C0.5 8.52038 0.532924 8.59987 0.591529 8.65847C0.650134 8.71708 0.72962 8.75 0.8125 8.75ZM7.6875 3.56697L8.625 4.50447V8.125H7.6875V3.56697ZM3.9375 1.25H6.4375V1.875H3.9375V1.25ZM3.3125 2.5H7.0625V8.125H3.3125V2.5ZM1.75 4.50447L2.6875 3.56697V8.125H1.75V4.50447Z" fill="white"/>
<path d="M14.875 3.75H15.1875C15.2704 3.75 15.3499 3.71708 15.4085 3.65847C15.4671 3.59987 15.5 3.52038 15.5 3.4375C15.5 3.35462 15.4671 3.27513 15.4085 3.21653C15.3499 3.15792 15.2704 3.125 15.1875 3.125H14.875C14.7921 3.125 14.7126 3.15792 14.654 3.21653C14.5954 3.27513 14.5625 3.35462 14.5625 3.4375C14.5625 3.52038 14.5954 3.59987 14.654 3.65847C14.7126 3.71708 14.7921 3.75 14.875 3.75Z" fill="white"/>
<path d="M16.4375 3.75H16.75C16.8329 3.75 16.9124 3.71708 16.971 3.65847C17.0296 3.59987 17.0625 3.52038 17.0625 3.4375C17.0625 3.35462 17.0296 3.27513 16.971 3.21653C16.9124 3.15792 16.8329 3.125 16.75 3.125H16.4375C16.3546 3.125 16.2751 3.15792 16.2165 3.21653C16.1579 3.27513 16.125 3.35462 16.125 3.4375C16.125 3.52038 16.1579 3.59987 16.2165 3.65847C16.2751 3.71708 16.3546 3.75 16.4375 3.75Z" fill="white"/>
<path d="M14.875 5H15.1875C15.2704 5 15.3499 4.96708 15.4085 4.90847C15.4671 4.84987 15.5 4.77038 15.5 4.6875C15.5 4.60462 15.4671 4.52513 15.4085 4.46653C15.3499 4.40792 15.2704 4.375 15.1875 4.375H14.875C14.7921 4.375 14.7126 4.40792 14.654 4.46653C14.5954 4.52513 14.5625 4.60462 14.5625 4.6875C14.5625 4.77038 14.5954 4.84987 14.654 4.90847C14.7126 4.96708 14.7921 5 14.875 5Z" fill="white"/>
<path d="M16.4375 5H16.75C16.8329 5 16.9124 4.96708 16.971 4.90847C17.0296 4.84987 17.0625 4.77038 17.0625 4.6875C17.0625 4.60462 17.0296 4.52513 16.971 4.46653C16.9124 4.40792 16.8329 4.375 16.75 4.375H16.4375C16.3546 4.375 16.2751 4.40792 16.2165 4.46653C16.1579 4.52513 16.125 4.60462 16.125 4.6875C16.125 4.77038 16.1579 4.84987 16.2165 4.90847C16.2751 4.96708 16.3546 5 16.4375 5Z" fill="white"/>
<path d="M14.875 6.25H15.1875C15.2704 6.25 15.3499 6.21708 15.4085 6.15847C15.4671 6.09987 15.5 6.02038 15.5 5.9375C15.5 5.85462 15.4671 5.77513 15.4085 5.71653C15.3499 5.65792 15.2704 5.625 15.1875 5.625H14.875C14.7921 5.625 14.7126 5.65792 14.654 5.71653C14.5954 5.77513 14.5625 5.85462 14.5625 5.9375C14.5625 6.02038 14.5954 6.09987 14.654 6.15847C14.7126 6.21708 14.7921 6.25 14.875 6.25Z" fill="white"/>
<path d="M16.4375 6.25H16.75C16.8329 6.25 16.9124 6.21708 16.971 6.15847C17.0296 6.09987 17.0625 6.02038 17.0625 5.9375C17.0625 5.85462 17.0296 5.77513 16.971 5.71653C16.9124 5.65792 16.8329 5.625 16.75 5.625H16.4375C16.3546 5.625 16.2751 5.65792 16.2165 5.71653C16.1579 5.77513 16.125 5.85462 16.125 5.9375C16.125 6.02038 16.1579 6.09987 16.2165 6.15847C16.2751 6.21708 16.3546 6.25 16.4375 6.25Z" fill="white"/>
<path d="M14.875 7.5H15.1875C15.2704 7.5 15.3499 7.46708 15.4085 7.40847C15.4671 7.34987 15.5 7.27038 15.5 7.1875C15.5 7.10462 15.4671 7.02513 15.4085 6.96653C15.3499 6.90792 15.2704 6.875 15.1875 6.875H14.875C14.7921 6.875 14.7126 6.90792 14.654 6.96653C14.5954 7.02513 14.5625 7.10462 14.5625 7.1875C14.5625 7.27038 14.5954 7.34987 14.654 7.40847C14.7126 7.46708 14.7921 7.5 14.875 7.5Z" fill="white"/>
<path d="M16.4375 7.5H16.75C16.8329 7.5 16.9124 7.46708 16.971 7.40847C17.0296 7.34987 17.0625 7.27038 17.0625 7.1875C17.0625 7.10462 17.0296 7.02513 16.971 6.96653C16.9124 6.90792 16.8329 6.875 16.75 6.875H16.4375C16.3546 6.875 16.2751 6.90792 16.2165 6.96653C16.1579 7.02513 16.125 7.10462 16.125 7.1875C16.125 7.27038 16.1579 7.34987 16.2165 7.40847C16.2751 7.46708 16.3546 7.5 16.4375 7.5Z" fill="white"/>
<path d="M18.3125 2.1875C18.3125 2.10462 18.2796 2.02514 18.221 1.96653C18.1624 1.90793 18.0829 1.875 18 1.875H17.6875V0.9375C17.6875 0.854621 17.6546 0.775138 17.596 0.716534C17.5374 0.65793 17.4579 0.625004 17.375 0.625H17.0625V0.3125C17.0625 0.22962 17.0296 0.150134 16.971 0.0915291C16.9124 0.032924 16.8329 0 16.75 0C16.6671 0 16.5876 0.032924 16.529 0.0915291C16.4704 0.150134 16.4375 0.22962 16.4375 0.3125V0.625H15.1875V0.3125C15.1875 0.22962 15.1546 0.150134 15.096 0.0915291C15.0374 0.032924 14.9579 0 14.875 0C14.7921 0 14.7126 0.032924 14.654 0.0915291C14.5954 0.150134 14.5625 0.22962 14.5625 0.3125V0.625H14.25C14.1671 0.625004 14.0876 0.65793 14.029 0.716534C13.9704 0.775138 13.9375 0.854621 13.9375 0.9375V1.875H13.625C13.5421 1.875 13.4626 1.90793 13.404 1.96653C13.3454 2.02514 13.3125 2.10462 13.3125 2.1875V2.68311L11.8416 4.15405C11.7829 4.21265 11.75 4.29213 11.75 4.375V8.125H11.4375C11.3546 8.125 11.2751 8.15792 11.2165 8.21653C11.1579 8.27513 11.125 8.35462 11.125 8.4375C11.125 8.52038 11.1579 8.59987 11.2165 8.65847C11.2751 8.71708 11.3546 8.75 11.4375 8.75H20.1875C20.2704 8.75 20.3499 8.71708 20.4085 8.65847C20.4671 8.59987 20.5 8.52038 20.5 8.4375C20.5 8.35462 20.4671 8.27513 20.4085 8.21653C20.3499 8.15792 20.2704 8.125 20.1875 8.125H19.875V4.375C19.875 4.29213 19.8421 4.21265 19.7834 4.15405L18.3125 2.68311V2.1875ZM13.3125 8.125H12.375V4.50447L13.3125 3.56697V8.125ZM14.5625 1.25H17.0625V1.875H14.5625V1.25ZM17.6875 8.125H13.9375V2.5H17.6875V8.125ZM19.25 4.50447V8.125H18.3125V3.56697L19.25 4.50447Z" fill="white"/>
<path d="M9.5625 15H9.875C9.95788 15 10.0374 14.9671 10.096 14.9085C10.1546 14.8499 10.1875 14.7704 10.1875 14.6875C10.1875 14.6046 10.1546 14.5251 10.096 14.4665C10.0374 14.4079 9.95788 14.375 9.875 14.375H9.5625C9.47962 14.375 9.40013 14.4079 9.34153 14.4665C9.28292 14.5251 9.25 14.6046 9.25 14.6875C9.25 14.7704 9.28292 14.8499 9.34153 14.9085C9.40013 14.9671 9.47962 15 9.5625 15Z" fill="white"/>
<path d="M11.125 15H11.4375C11.5204 15 11.5999 14.9671 11.6585 14.9085C11.7171 14.8499 11.75 14.7704 11.75 14.6875C11.75 14.6046 11.7171 14.5251 11.6585 14.4665C11.5999 14.4079 11.5204 14.375 11.4375 14.375H11.125C11.0421 14.375 10.9626 14.4079 10.904 14.4665C10.8454 14.5251 10.8125 14.6046 10.8125 14.6875C10.8125 14.7704 10.8454 14.8499 10.904 14.9085C10.9626 14.9671 11.0421 15 11.125 15Z" fill="white"/>
<path d="M9.5625 16.25H9.875C9.95788 16.25 10.0374 16.2171 10.096 16.1585C10.1546 16.0999 10.1875 16.0204 10.1875 15.9375C10.1875 15.8546 10.1546 15.7751 10.096 15.7165C10.0374 15.6579 9.95788 15.625 9.875 15.625H9.5625C9.47962 15.625 9.40013 15.6579 9.34153 15.7165C9.28292 15.7751 9.25 15.8546 9.25 15.9375C9.25 16.0204 9.28292 16.0999 9.34153 16.1585C9.40013 16.2171 9.47962 16.25 9.5625 16.25Z" fill="white"/>
<path d="M11.125 16.25H11.4375C11.5204 16.25 11.5999 16.2171 11.6585 16.1585C11.7171 16.0999 11.75 16.0204 11.75 15.9375C11.75 15.8546 11.7171 15.7751 11.6585 15.7165C11.5999 15.6579 11.5204 15.625 11.4375 15.625H11.125C11.0421 15.625 10.9626 15.6579 10.904 15.7165C10.8454 15.7751 10.8125 15.8546 10.8125 15.9375C10.8125 16.0204 10.8454 16.0999 10.904 16.1585C10.9626 16.2171 11.0421 16.25 11.125 16.25Z" fill="white"/>
<path d="M9.5625 17.5H9.875C9.95788 17.5 10.0374 17.4671 10.096 17.4085C10.1546 17.3499 10.1875 17.2704 10.1875 17.1875C10.1875 17.1046 10.1546 17.0251 10.096 16.9665C10.0374 16.9079 9.95788 16.875 9.875 16.875H9.5625C9.47962 16.875 9.40013 16.9079 9.34153 16.9665C9.28292 17.0251 9.25 17.1046 9.25 17.1875C9.25 17.2704 9.28292 17.3499 9.34153 17.4085C9.40013 17.4671 9.47962 17.5 9.5625 17.5Z" fill="white"/>
<path d="M11.125 17.5H11.4375C11.5204 17.5 11.5999 17.4671 11.6585 17.4085C11.7171 17.3499 11.75 17.2704 11.75 17.1875C11.75 17.1046 11.7171 17.0251 11.6585 16.9665C11.5999 16.9079 11.5204 16.875 11.4375 16.875H11.125C11.0421 16.875 10.9626 16.9079 10.904 16.9665C10.8454 17.0251 10.8125 17.1046 10.8125 17.1875C10.8125 17.2704 10.8454 17.3499 10.904 17.4085C10.9626 17.4671 11.0421 17.5 11.125 17.5Z" fill="white"/>
<path d="M9.5625 18.75H9.875C9.95788 18.75 10.0374 18.7171 10.096 18.6585C10.1546 18.5999 10.1875 18.5204 10.1875 18.4375C10.1875 18.3546 10.1546 18.2751 10.096 18.2165C10.0374 18.1579 9.95788 18.125 9.875 18.125H9.5625C9.47962 18.125 9.40013 18.1579 9.34153 18.2165C9.28292 18.2751 9.25 18.3546 9.25 18.4375C9.25 18.5204 9.28292 18.5999 9.34153 18.6585C9.40013 18.7171 9.47962 18.75 9.5625 18.75Z" fill="white"/>
<path d="M11.125 18.75H11.4375C11.5204 18.75 11.5999 18.7171 11.6585 18.6585C11.7171 18.5999 11.75 18.5204 11.75 18.4375C11.75 18.3546 11.7171 18.2751 11.6585 18.2165C11.5999 18.1579 11.5204 18.125 11.4375 18.125H11.125C11.0421 18.125 10.9626 18.1579 10.904 18.2165C10.8454 18.2751 10.8125 18.3546 10.8125 18.4375C10.8125 18.5204 10.8454 18.5999 10.904 18.6585C10.9626 18.7171 11.0421 18.75 11.125 18.75Z" fill="white"/>
<path d="M15.1875 19.6875C15.1875 19.6046 15.1546 19.5251 15.096 19.4665C15.0374 19.4079 14.9579 19.375 14.875 19.375H14.5625V15.625C14.5625 15.5421 14.5296 15.4627 14.4709 15.4041L13 13.9331V13.4375C13 13.3546 12.9671 13.2751 12.9085 13.2165C12.8499 13.1579 12.7704 13.125 12.6875 13.125H12.375V12.1875C12.375 12.1046 12.3421 12.0251 12.2835 11.9665C12.2249 11.9079 12.1454 11.875 12.0625 11.875H11.75V11.5625C11.75 11.4796 11.7171 11.4001 11.6585 11.3415C11.5999 11.2829 11.5204 11.25 11.4375 11.25C11.3546 11.25 11.2751 11.2829 11.2165 11.3415C11.1579 11.4001 11.125 11.4796 11.125 11.5625V11.875H9.875V11.5625C9.875 11.4796 9.84208 11.4001 9.78347 11.3415C9.72487 11.2829 9.64538 11.25 9.5625 11.25C9.47962 11.25 9.40013 11.2829 9.34153 11.3415C9.28292 11.4001 9.25 11.4796 9.25 11.5625V11.875H8.9375C8.85462 11.875 8.77514 11.9079 8.71653 11.9665C8.65793 12.0251 8.625 12.1046 8.625 12.1875V13.125H8.3125C8.22962 13.125 8.15014 13.1579 8.09153 13.2165C8.03293 13.2751 8 13.3546 8 13.4375V13.9331L6.52905 15.4041C6.47045 15.4627 6.43752 15.5421 6.4375 15.625V19.375H6.125C6.04212 19.375 5.96263 19.4079 5.90403 19.4665C5.84542 19.5251 5.8125 19.6046 5.8125 19.6875C5.8125 19.7704 5.84542 19.8499 5.90403 19.9085C5.96263 19.9671 6.04212 20 6.125 20H14.875C14.9579 20 15.0374 19.9671 15.096 19.9085C15.1546 19.8499 15.1875 19.7704 15.1875 19.6875ZM8 19.375H7.0625V15.7544L8 14.8169V19.375ZM9.25 12.5H11.75V13.125H9.25V12.5ZM12.375 19.375H8.625V13.75H12.375V19.375ZM13.9375 19.375H13V14.8169L13.9375 15.7544V19.375Z" fill="white"/>
<path d="M2.53125 9.375C2.44837 9.375 2.36889 9.40793 2.31028 9.46653C2.25168 9.52514 2.21875 9.60462 2.21875 9.6875V17.0312C2.21875 17.1141 2.25168 17.1936 2.31028 17.2522C2.36889 17.3108 2.44837 17.3437 2.53125 17.3438H5.5C5.58288 17.3438 5.66237 17.3108 5.72097 17.2522C5.77958 17.1936 5.8125 17.1141 5.8125 17.0312C5.8125 16.9484 5.77958 16.8689 5.72097 16.8103C5.66237 16.7517 5.58288 16.7188 5.5 16.7188H2.84375V9.6875C2.84375 9.60462 2.81082 9.52514 2.75222 9.46653C2.69361 9.40793 2.61413 9.375 2.53125 9.375Z" fill="white"/>
<path d="M18.1562 9.6875V16.7188H15.5C15.4171 16.7188 15.3376 16.7517 15.279 16.8103C15.2204 16.8689 15.1875 16.9484 15.1875 17.0312C15.1875 17.1141 15.2204 17.1936 15.279 17.2522C15.3376 17.3108 15.4171 17.3438 15.5 17.3438H18.4688C18.5516 17.3437 18.6311 17.3108 18.6897 17.2522C18.7483 17.1936 18.7812 17.1141 18.7812 17.0312V9.6875C18.7812 9.60462 18.7483 9.52513 18.6897 9.46653C18.6311 9.40792 18.5516 9.375 18.4688 9.375C18.3859 9.375 18.3064 9.40792 18.2478 9.46653C18.1892 9.52513 18.1562 9.60462 18.1562 9.6875Z" fill="white"/>
</svg>
