<svg width="20" height="23" viewBox="0 0 20 23" fill="none" xmlns="http://www.w3.org/2000/svg">
<path d="M19.9656 10.7156C19.8961 10.5475 19.7335 10.439 19.5517 10.439H18.0703V3.54394C18.0703 2.74098 17.4171 2.08767 16.6141 2.08767H14.5907V1.95194C14.5907 1.64308 14.3395 1.39184 14.0306 1.39184H11.7743C11.6161 0.591471 10.9049 0 10.0791 0C9.25321 0 8.54201 0.591471 8.38388 1.39184H6.12755C5.81869 1.39184 5.56744 1.64308 5.56744 1.95194V2.08767H3.5439C2.74088 2.08767 2.08762 2.74093 2.08762 3.54394V4.28763C2.08762 4.47327 2.23804 4.62369 2.42369 4.62369C2.60933 4.62369 2.75975 4.47327 2.75975 4.28763V3.54394C2.75975 3.11159 3.11154 2.7598 3.5439 2.7598H5.56744V3.47942H4.03993C3.73106 3.47942 3.47982 3.73066 3.47982 4.03952V10.4389H2.75975V5.85592C2.75975 5.67028 2.60933 5.51986 2.42369 5.51986C2.23804 5.51986 2.08762 5.67028 2.08762 5.85592V10.439H0.448306C0.266383 10.439 0.103908 10.5475 0.0343206 10.7156C-0.0352668 10.8836 0.0028651 11.0753 0.131465 11.2039L1.92963 13.0021V17.392C1.92963 17.5776 2.08005 17.7281 2.26569 17.7281C2.45133 17.7281 2.60175 17.5776 2.60175 17.392V13.1989H9.04713V22.2698H2.60171V18.9603C2.60171 18.7746 2.45129 18.6242 2.26565 18.6242C2.08 18.6242 1.92958 18.7746 1.92958 18.9603V22.3818C1.92958 22.6907 2.18082 22.9419 2.48969 22.9419H17.5103C17.8191 22.9419 18.0704 22.6907 18.0704 22.3818V13.0021L19.8685 11.2039C19.9971 11.0753 20.0353 10.8836 19.9656 10.7156ZM16.6141 2.7598C17.0464 2.7598 17.3982 3.11154 17.3982 3.54394V10.439H16.6785V4.03952C16.6785 3.73066 16.4273 3.47942 16.1184 3.47942H14.5907V2.7598H16.6141ZM6.23957 2.06397H8.47869C8.75754 2.06397 8.99583 1.85767 9.03297 1.58416C9.10355 1.0642 9.55329 0.672126 10.0791 0.672126C10.6049 0.672126 11.0546 1.0642 11.1252 1.5842C11.1624 1.85771 11.4007 2.06401 11.6795 2.06401H13.9186V4.51167C13.9186 4.697 13.7679 4.84773 13.5826 4.84773H6.57563C6.39031 4.84773 6.23957 4.697 6.23957 4.51167V2.06397ZM2.40487 12.5267L0.989188 11.1111H7.01695C7.1067 11.1111 7.19112 11.146 7.25457 11.2095L8.57181 12.5267H2.40487V12.5267ZM17.3983 22.2698H9.71921V13.1989H17.3983V22.2698ZM17.5951 12.5267H10.1945L11.5117 11.2095C11.5751 11.1461 11.6596 11.1111 11.7493 11.1111H12.5193C12.7049 11.1111 12.8554 10.9607 12.8554 10.775C12.8554 10.5894 12.7049 10.439 12.5193 10.439H11.7493C11.48 10.439 11.2268 10.5439 11.0364 10.7343L9.38315 12.3875L7.7299 10.7343C7.53946 10.5439 7.2863 10.439 7.017 10.439H4.15199V4.15155H5.56749V4.51163C5.56749 5.06752 6.01979 5.51982 6.57568 5.51982H13.5826C14.1385 5.51982 14.5908 5.06752 14.5908 4.51163V4.15155H16.0065V10.4389H14.0877C13.902 10.4389 13.7516 10.5894 13.7516 10.775C13.7516 10.9606 13.902 11.1111 14.0877 11.1111H19.0109L17.5951 12.5267Z" fill="white"/>
</svg>
